<?xml version="1.0" standalone="no"?>
<!DOCTYPE svg PUBLIC "-//W3C//DTD SVG 20010904//EN"
 "http://www.w3.org/TR/2001/REC-SVG-20010904/DTD/svg10.dtd">
<svg version="1.0" xmlns="http://www.w3.org/2000/svg"
 width="1366.000000pt" height="768.000000pt" viewBox="0 0 1366.000000 768.000000"
 preserveAspectRatio="xMidYMid meet">

<g transform="translate(0.000000,768.000000) scale(0.100000,-0.100000)"
fill="#000000" stroke="none">
<path d="M3016 6139 c-111 -12 -165 -28 -265 -76 -168 -80 -279 -224 -334
-433 l-22 -85 0 -1000 c0 -1134 -4 -1076 82 -1254 108 -226 311 -343 618 -357
423 -20 692 156 786 516 22 82 23 104 26 688 l4 602 -370 0 -371 0 0 -220 0
-219 128 -3 127 -3 3 -339 c3 -371 -2 -411 -55 -488 -77 -113 -297 -125 -400
-22 -77 78 -74 25 -71 1110 l3 960 30 59 c43 85 100 119 206 124 105 4 166
-16 217 -74 58 -66 64 -95 69 -322 l5 -203 240 0 241 0 -6 223 c-4 180 -9 238
-26 306 -77 304 -279 474 -606 511 -101 11 -159 11 -259 -1z"/>
<path d="M10380 6139 c-287 -33 -494 -194 -574 -449 -47 -148 -59 -334 -31
-496 20 -117 38 -171 91 -274 82 -160 212 -309 450 -516 346 -302 431 -433
441 -685 7 -150 -9 -212 -70 -273 -97 -97 -296 -94 -387 6 -51 55 -70 138 -70
299 l0 139 -240 0 -240 0 0 -123 c0 -312 59 -496 206 -644 83 -84 190 -142
314 -170 115 -26 379 -23 485 6 261 70 421 233 485 491 29 119 37 333 16 465
-45 295 -171 485 -528 797 -358 312 -444 437 -455 664 -7 130 12 200 72 259
46 47 97 65 180 65 83 0 134 -18 181 -65 56 -56 74 -125 74 -283 l0 -122 240
0 240 0 0 119 c0 278 -62 468 -196 606 -149 152 -392 217 -684 184z"/>
<path d="M4230 4833 c0 -1198 1 -1273 19 -1358 10 -50 34 -123 52 -162 l34
-72 80 50 c69 44 306 168 345 181 10 3 9 15 -6 54 -18 47 -19 96 -22 1312 l-2
1262 -250 0 -250 0 0 -1267z"/>
<path d="M5258 4874 c-2 -674 -2 -1227 -1 -1228 1 -1 53 10 115 26 62 15 170
38 240 50 l128 23 0 1178 0 1177 -240 0 -240 0 -2 -1226z"/>
<path d="M6110 4942 l0 -1159 38 -7 c20 -3 55 -6 77 -6 115 -1 274 -59 330
-121 50 -55 61 -103 41 -170 -41 -144 -211 -311 -414 -408 -50 -24 -72 -40
-72 -53 0 -10 1 -19 3 -19 11 -5 445 -17 657 -18 222 0 280 3 355 18 266 55
420 203 497 476 23 80 23 81 26 1000 4 979 1 1043 -44 1185 -65 207 -218 350
-441 412 -74 21 -102 22 -565 26 l-488 3 0 -1159z m857 706 c32 -8 61 -25 94
-57 83 -81 79 -29 79 -1050 0 -1007 2 -979 -70 -1051 -58 -58 -108 -70 -292
-70 l-158 0 0 1120 0 1120 151 0 c82 0 171 -5 196 -12z"/>
<path d="M8380 6090 c0 -5 -117 -700 -260 -1545 -143 -845 -260 -1542 -260
-1549 0 -17 66 -26 84 -12 8 6 40 47 72 91 119 163 217 276 287 335 40 33 80
67 90 75 9 8 17 29 17 48 0 59 -9 58 305 55 l289 -3 45 -302 45 -303 253 0
c196 0 253 3 252 13 0 6 -118 707 -262 1557 l-262 1545 -348 3 c-221 1 -347
-1 -347 -8z m445 -1280 c59 -404 109 -750 112 -767 l6 -33 -232 0 c-127 0
-231 4 -231 8 0 5 50 351 110 771 61 419 110 765 110 768 0 4 4 3 9 -2 4 -6
56 -341 116 -745z"/>
<path d="M6110 3515 l0 -175 41 45 c33 36 48 45 75 45 54 0 61 -28 20 -81 -27
-36 -96 -140 -130 -197 -9 -15 67 27 145 79 111 75 229 231 229 302 0 50 -28
87 -84 113 -54 24 -160 43 -248 44 l-48 0 0 -175z"/>
<path d="M5590 3630 c-52 -11 -152 -33 -222 -51 -124 -30 -127 -32 -138 -63
-13 -41 -74 -100 -125 -122 -52 -22 -167 -22 -217 -1 l-37 16 -148 -74 c-81
-40 -184 -97 -228 -125 l-80 -53 56 -51 c30 -28 82 -66 116 -83 l61 -33 357 0
357 0 62 32 c35 19 93 64 137 108 60 59 85 93 118 162 44 90 81 235 81 316 0
39 -2 42 -27 41 -16 0 -71 -9 -123 -19z"/>
<path d="M8345 3327 c-77 -81 -237 -280 -269 -334 -5 -10 6 -13 43 -13 l51 0
83 113 c111 150 114 154 122 210 7 51 1 56 -30 24z"/>
<path d="M8308 3005 c-23 -30 -22 -34 2 -28 13 3 20 14 20 29 0 29 -1 29 -22
-1z"/>
</g>
</svg>
